<svg width="51" height="51" viewBox="0 0 51 51" fill="none" xmlns="http://www.w3.org/2000/svg">
<g clip-path="url(#clip0_3309_7773)">
<path d="M36.529 16.8902C36.7261 17.0928 36.8386 17.3629 36.8437 17.6455C36.8375 17.9218 36.7248 18.1849 36.529 18.3799L33.8853 20.9816C33.7333 21.1272 33.6297 21.3159 33.5885 21.5223C33.5472 21.7287 33.5702 21.9427 33.6545 22.1356C33.7355 22.3256 33.8697 22.4881 34.0409 22.6035C34.2122 22.7189 34.4132 22.7823 34.6197 22.786H45.1104C45.3887 22.786 45.6555 22.6755 45.8522 22.4787C46.049 22.282 46.1595 22.0152 46.1595 21.7369V11.2461C46.1627 11.0355 46.1023 10.8287 45.9863 10.6528C45.8703 10.4769 45.704 10.3401 45.5091 10.26C45.318 10.1859 45.1096 10.1683 44.9087 10.2092C44.7079 10.2501 44.523 10.3479 44.3761 10.4908L41.7114 13.1764C41.6172 13.2768 41.5035 13.3568 41.3772 13.4115C41.2509 13.4661 41.1147 13.4944 40.9771 13.4944C40.8394 13.4944 40.7033 13.4661 40.577 13.4115C40.4507 13.3568 40.3369 13.2768 40.2427 13.1764L30.1716 3.12628C29.6707 2.68099 29.0183 2.44436 28.3484 2.46499C27.6785 2.48561 27.0419 2.76192 26.5693 3.23718C26.0967 3.71244 25.824 4.35058 25.8072 5.02059C25.7904 5.6906 26.0307 6.34163 26.4788 6.84001L36.529 16.8902Z" fill="white"/>
<path d="M50.3557 40.6622C50.3557 38.7146 49.582 36.8467 48.2049 35.4696C46.8277 34.0924 44.9598 33.3187 43.0122 33.3187H35.9414C35.7962 33.3172 35.6527 33.2868 35.5194 33.2291C35.3861 33.1715 35.2656 33.0878 35.1651 32.983L20.6878 17.5196C20.3898 17.2077 20.0316 16.9594 19.6349 16.7899C19.2382 16.6204 18.8112 16.5332 18.3798 16.5334H7.34354C5.39591 16.5334 3.52806 17.3071 2.15087 18.6843C0.773692 20.0615 0 21.9294 0 23.877C0 25.8246 0.773692 27.6925 2.15087 29.0697C3.52806 30.4468 5.39591 31.2205 7.34354 31.2205H13.3652C13.5092 31.2181 13.6521 31.2447 13.7855 31.2988C13.9189 31.3528 14.04 31.4333 14.1416 31.5353L28.6188 46.9987C28.9158 47.3134 29.2733 47.5649 29.67 47.738C30.0666 47.911 30.4941 48.0021 30.9268 48.0058H43.0122C44.9581 48.0002 46.8228 47.2248 48.1987 45.8488C49.5747 44.4728 50.3502 42.6082 50.3557 40.6622Z" fill="white"/>
</g>
<defs>
<clipPath id="clip0_3309_7773">
<rect width="50.3557" height="50.3557" fill="white"/>
</clipPath>
</defs>
</svg>
