<svg width="350" height="350" viewBox="0 0 350 350" fill="none" xmlns="http://www.w3.org/2000/svg">
<rect width="350" height="350" fill="#0A6847"/>
<path d="M45.6004 29.449V99.9845H33.7354V45.9935H33.6339L25.3144 54.6245H25.2059V42.245L36.1294 29.449H45.6004V29.449Z" fill="white"/>
<rect x="124.46" y="29.2985" width="4.80901" height="28.6195" fill="white"/>
<path d="M132.087 57.9214H136.896V45.2935H141.705V41.412H136.896V33.222H143.35V29.2985H132.087V57.9214V57.9214Z" fill="white"/>
<path d="M156.968 33.222V29.2985H145.495V57.9214H156.968V53.9945H150.304V45.2935H155.071V41.412H150.304V33.222H156.968V33.222Z" fill="white"/>
<path d="M172.91 29.295C177.719 29.2952 179.325 31.5491 179.325 35.5948V38.5109C179.325 40.9082 178.432 42.4272 176.455 43.0607C178.859 43.6101 180.036 45.2129 180.036 47.8273V51.6144C180.036 55.6778 178.226 57.9141 173.414 57.9142H165.948V29.295H172.91ZM170.768 45.045V53.9913H172.869C174.468 53.9912 175.231 53.1896 175.231 51.671L175.242 47.3654C175.242 45.8465 174.524 45.045 172.837 45.045H170.768ZM170.757 41.3702H172.443C174.008 41.3702 174.725 40.5685 174.725 39.046V35.546C174.725 33.9885 174.008 33.2218 172.401 33.2218H170.757V41.3702Z" fill="white"/>
<path d="M182.092 57.9214H193.565V53.9945H186.898V45.2935H191.665V41.412H186.898V33.222H193.565V29.2985H182.092V57.9214V57.9214Z" fill="white"/>
<path d="M196.522 29.2985V57.9214H207.071V53.9945H201.331V29.2985H196.522V29.2985Z" fill="white"/>
<path d="M216.158 28.9625C221.264 28.9627 223.458 32.2142 223.458 36.6871V50.5299C223.458 54.9676 221.218 58.2544 216.158 58.2545C211.097 58.2545 208.902 54.9677 208.902 50.5299V36.6871C208.902 32.2001 211.051 28.9625 216.158 28.9625ZM216.158 32.9733C214.471 32.9735 213.708 34.1956 213.708 35.9244V51.2926C213.709 53.0214 214.426 54.2465 216.158 54.2467C217.89 54.2467 218.65 53.0216 218.65 51.2926V35.9244C218.65 34.1954 217.845 32.9733 216.158 32.9733Z" fill="white"/>
<path d="M232.089 47.4495H232.05L229.814 29.2985H225.173L229.012 57.9214H233.524L236.226 40.229H236.264L239.092 57.9214H243.649L247.359 29.2985H243.313L241.115 47.4495H241.077L238.42 29.2985H234.497L232.089 47.4495V47.4495Z" fill="white"/>
<path d="M114.849 99.8795H119.36L122.062 82.194H122.104L124.932 99.8795H129.489L133.203 71.2635H129.15L126.959 89.4145H126.913L124.26 71.2635H120.333L117.929 89.4145H117.887L115.65 71.2635H111.009L114.849 99.8795V99.8795Z" fill="white"/>
<path d="M143.429 71.2635L148.865 99.8798H143.93L143.048 94.6503H137.941L137.101 99.8798H132.552L137.949 71.2635H143.429ZM140.478 79.3241L138.599 90.8036H142.425L140.524 79.3241H140.478Z" fill="white"/>
<path d="M156.776 99.8795V75.187H160.741V71.2635H147.959V75.187H151.921V99.8795H156.776V99.8795Z" fill="white"/>
<path d="M174.44 75.187V71.2635H162.968V99.8795H174.44V95.956H167.777V87.2585H172.543V83.3735H167.777V75.187H174.44V75.187Z" fill="white"/>
<path d="M184.013 71.267C188.864 71.267 190.635 73.6681 190.635 77.6791L190.653 81.35C190.653 84.4265 189.543 86.2473 186.802 86.8773L191.398 99.8793H186.334L181.822 86.7582V99.8793H177.013V71.267H184.013ZM181.837 75.1869V84.0941H183.443C185.102 84.094 185.801 83.2507 185.801 81.7318V77.5072C185.801 75.9465 185.084 75.187 183.443 75.1869H181.837Z" fill="white"/>
<path d="M81.7205 29.4315V79.2889H86.5085V88.5497H81.7205V100.002L70.4783 99.9989V88.5497H49.5554V81.2665L70.0623 29.4315H81.7205ZM70.5798 50.2391L59.9636 79.2889H70.6843V50.2391H70.5798Z" fill="white"/>
<path d="M196.601 213.15C235.247 213.15 263.159 247.186 268.869 254.722L269.352 255.356C269.471 255.503 269.569 255.644 269.656 255.766C269.717 255.903 269.749 256.05 269.751 256.2C269.748 256.35 269.715 256.499 269.656 256.637C269.569 256.742 269.471 256.883 269.352 257.044C264.945 262.984 236.5 299.257 196.601 299.257C161.961 299.257 124.903 267.838 124.903 267.838C124.88 267.884 110.908 296.417 82.3682 299.075C82.2708 299.098 82.1703 299.107 82.0703 299.103L81.7627 299.128C81.174 299.086 80.7169 298.598 80.7129 298.007C80.7147 297.795 80.7751 297.587 80.8877 297.406L81.1358 297.02C84.7724 290.954 94.1944 273.574 94.1944 256.2C94.1943 238.892 84.8287 221.55 81.1573 215.477C80.9465 215.157 80.796 214.801 80.7129 214.427C80.6465 213.913 81.2029 213.335 81.7979 213.3H81.9756C82.1576 213.3 82.3434 213.339 82.5078 213.339C110.967 216.075 124.887 244.532 124.903 244.566C124.903 244.566 161.951 213.15 196.601 213.15ZM218.801 237.51C212.374 237.509 207.162 242.716 207.157 249.143C207.153 255.57 212.358 260.784 218.784 260.792C221.874 260.793 224.839 259.568 227.024 257.384C229.21 255.201 230.439 252.237 230.439 249.147C230.437 242.72 225.228 237.512 218.801 237.51Z" fill="white"/>
<path d="M81.6128 144.959C81.541 144.936 81.4671 144.92 81.3923 144.91C81.0869 144.912 80.7947 145.035 80.5801 145.253C80.3654 145.47 80.2459 145.764 80.2478 146.069V154C80.2419 154.308 80.362 154.605 80.5803 154.822C99.8303 171.552 118.069 155.872 122.29 151.732C122.368 151.606 122.471 151.497 122.591 151.41C122.778 151.281 122.998 151.21 123.224 151.203C123.512 151.202 123.79 151.312 123.998 151.511C124.013 151.531 124.032 151.548 124.054 151.56C145.806 172.315 168.612 155.505 173.358 151.56L173.824 151.133C173.96 151.073 174.108 151.043 174.258 151.046C174.413 151.041 174.567 151.071 174.709 151.133L175.182 151.56C179.924 155.505 202.73 172.315 224.479 151.56C224.495 151.546 224.509 151.529 224.521 151.511C224.73 151.313 225.007 151.203 225.295 151.203C225.522 151.208 225.742 151.28 225.928 151.41C226.053 151.497 226.161 151.606 226.247 151.732C230.464 155.876 248.678 171.552 267.949 154.822C268.165 154.603 268.284 154.307 268.282 154V146.069C268.287 145.765 268.171 145.471 267.959 145.253C267.746 145.036 267.455 144.912 267.151 144.91C267.068 144.918 266.986 144.935 266.906 144.959C266.728 145.061 266.556 145.159 266.329 145.26C260.407 148.225 242.039 155.281 225.379 139.506C225.221 139.363 225.057 139.216 224.892 139.044C224.739 138.976 224.574 138.94 224.406 138.939C224.288 138.947 224.171 138.964 224.056 138.992C223.823 139.084 223.621 139.24 223.475 139.443C218.505 143.23 195.699 158.672 175.388 139.727L175.091 139.436C174.867 139.224 174.573 139.099 174.265 139.086C173.966 139.101 173.683 139.226 173.47 139.436L173.155 139.727C152.855 158.672 130.021 143.227 125.058 139.443C124.919 139.24 124.723 139.083 124.495 138.992C124.38 138.966 124.263 138.948 124.145 138.939C123.98 138.944 123.817 138.979 123.665 139.044C123.514 139.21 123.352 139.364 123.179 139.506C106.508 155.281 88.1438 148.225 82.2288 145.26C82.0223 145.159 81.8228 145.061 81.6443 144.959" fill="white"/>
<path d="M122.29 180.628C122.372 180.506 122.475 180.399 122.595 180.313C122.78 180.181 122.998 180.106 123.225 180.096C123.515 180.097 123.794 180.211 124.002 180.415C124.016 180.434 124.034 180.451 124.054 180.464C145.8 201.194 168.613 184.391 173.359 180.464L173.824 180.023C173.963 179.97 174.11 179.945 174.258 179.949C174.414 179.944 174.57 179.969 174.717 180.023L175.182 180.464C179.925 184.391 202.727 201.194 224.483 180.464C224.483 180.464 224.508 180.436 224.522 180.415C224.728 180.212 225.006 180.098 225.295 180.096C225.522 180.104 225.742 180.179 225.925 180.313C226.051 180.398 226.16 180.504 226.247 180.628C230.447 184.776 248.675 200.455 267.95 183.708C268.171 183.5 268.297 183.21 268.3 182.907V174.944C268.301 174.642 268.181 174.352 267.968 174.139C267.754 173.925 267.464 173.806 267.162 173.807C267.08 173.815 266.998 173.83 266.917 173.852L266.34 174.143C260.421 177.111 242.043 184.149 225.39 168.396L224.907 167.941C224.757 167.857 224.588 167.817 224.417 167.825C224.295 167.823 224.174 167.853 224.067 167.913C223.826 167.976 223.618 168.128 223.486 168.34C218.523 172.12 195.71 187.565 175.396 168.62L175.098 168.322C174.876 168.113 174.581 167.999 174.276 168.004C173.979 168.001 173.694 168.115 173.481 168.322L173.166 168.62C152.866 187.565 130.032 172.12 125.069 168.34C124.944 168.13 124.742 167.977 124.506 167.913C124.398 167.857 124.278 167.827 124.156 167.825C123.991 167.82 123.827 167.86 123.683 167.941C123.526 168.098 123.358 168.249 123.186 168.396C106.516 184.146 88.1549 177.111 82.2364 174.143L81.6519 173.852C81.5807 173.832 81.5082 173.816 81.4349 173.807C81.1316 173.805 80.8401 173.924 80.6248 174.137C80.4094 174.35 80.2878 174.641 80.2869 174.944V182.907C80.2826 183.208 80.4029 183.498 80.6194 183.708C99.8694 200.455 118.111 184.758 122.329 180.628" fill="white"/>
<path d="M111.686 29.2985V57.9214H122.238V53.9945H116.498V29.2985H111.686V29.2985Z" fill="white"/>
</svg>
