<svg width="350" height="350" viewBox="0 0 350 350" fill="none" xmlns="http://www.w3.org/2000/svg">
<rect width="350" height="350" fill="#3F7E44"/>
<path d="M44.1763 29.358V99.897H32.3147V45.9025H32.2097L23.8902 54.537H23.7817V42.154L34.7052 29.358H44.1763V29.358Z" fill="white"/>
<path d="M83.3005 44.6565V50.792C83.3005 56.7175 80.077 60.6725 75.1875 62.237C81.1165 63.588 83.9375 67.7495 83.9375 74.2V84.6055C83.9375 94.381 78.7365 100.73 66.77 100.73C54.6985 100.73 50.4285 93.863 50.4285 83.146V73.8885H61.2505V84C61.2505 88.1615 62.703 90.86 66.7665 90.86C70.403 90.86 72.0655 88.263 72.0655 84.5145V72.849C72.0655 69.1005 70.403 67.1265 66.245 67.1265H61.2505V58.0755H65.727C69.577 58.0755 72.0655 56.0945 72.0655 52.353V44.758C72.0655 40.908 70.718 38.4125 66.973 38.4125C63.228 38.4125 61.877 40.908 61.877 45.276V52.4545H51.041V46.2C51.041 35.7945 55.3075 28.511 67.5855 28.511C78.5125 28.511 83.297 34.6535 83.297 44.6425" fill="white"/>
<path d="M175 154.542C250.122 154.542 291.617 203.004 302.522 217.778L303.482 219.114C303.886 219.667 304.218 220.146 304.479 220.552C304.217 220.955 303.885 221.445 303.482 222.005C294.26 234.931 252.539 286.573 175 286.573C97.4611 286.573 55.7626 234.93 46.5261 221.991C46.1341 221.431 45.7942 220.955 45.5212 220.539C45.7942 220.15 46.1341 219.653 46.5261 219.1C55.7628 206.181 97.4543 154.543 175 154.542ZM202.927 262.57C197.495 262.367 193.785 267.18 191.955 268.237C190.124 269.294 178.602 262.752 169.852 263.606C165.925 263.984 160.945 265.692 159.275 270.049C158.867 270.975 159.136 272.06 159.929 272.688C164.86 274.131 169.972 274.863 175.109 274.862C186.943 274.878 198.453 270.991 207.855 263.805C206.609 263.336 206.637 262.713 202.927 262.57ZM195.273 170.746C179.069 164.218 160.708 165.932 145.992 175.346C152.267 174.877 164.832 172.75 163.492 178.251C162.305 183.116 171.454 183.907 166.81 186.301C164.833 187.33 159.072 191.344 157.798 190.645C154.214 188.71 165.122 186.253 163.015 184.818C160.908 183.383 156.722 185.027 153.45 185.745C151.839 186.109 145.54 186.085 143.241 187.191C140.941 188.297 138.225 189.77 138.988 191.741C139.751 193.711 145.989 195.265 147.039 195.265C148.089 195.265 149.233 195.027 151.459 192.269C153.685 189.511 156.397 192.056 155.613 192.406C154.124 193.253 152.798 194.359 151.697 195.671C150.387 197.27 148.131 197.725 146.303 196.759C144.053 195.639 139.066 196.235 138.103 196.805C137.141 197.376 134.729 199.063 134.008 199.255C133.287 199.448 132.237 200.008 132.587 200.75C132.937 201.492 133.133 202.377 132.587 202.944C132.041 203.511 131.039 204.683 129.639 203.749C128.365 202.902 124.659 203.28 123.627 204.417C123.487 204.851 123.357 205.293 123.231 205.73C123.161 207.644 124.008 210.791 127.158 208.425C128.197 207.645 133.37 207.83 136.555 204.802C138.064 203.381 139.741 205.24 140.112 205.993C140.483 206.746 142.663 211.385 143.741 211.204C144.819 211.022 141.971 206.753 143.244 206.556C144.518 206.36 146.143 210.164 146.902 209.625C148.967 208.166 150.675 208.681 150.906 210.847C151.102 212.572 149.481 213.706 147.406 214.56C144.526 215.729 139.608 213.073 136.475 211.901C132.692 210.476 127.675 209.699 127.628 209.692L124.477 210.784C124.477 210.784 124.533 211.575 121.677 214.956C121.551 215.113 121.439 215.282 121.344 215.459C121.173 217.23 121.075 219.027 121.075 220.85C121.074 228.078 122.529 235.232 125.352 241.885C125.426 241.913 125.465 241.934 125.542 241.958C128.509 242.896 127.634 242.42 129.741 241.475C131.848 240.53 133.731 238.48 135.236 240.348C136.741 242.217 138.183 241.616 138.386 244.612C138.59 247.607 141.474 242.648 142.023 247.138C142.884 254.155 144.532 250.705 144.532 251.867C144.532 255.241 144.883 261.796 147.333 261.978C149.783 262.16 153.639 260.463 154.682 259.161C155.66 257.94 156.798 256.557 157.802 252.986L157.986 252.22C159.036 248.108 160.257 250.533 160.786 247.73C161.314 244.926 162.193 244.723 162.014 241.36C161.836 237.996 162.306 237.202 164.756 234.78C167.205 232.358 166.495 233.624 167.206 231.377C167.916 229.131 165.465 228.504 163.278 227.122C160.716 225.504 158.074 221.126 158.326 218.155C158.501 216.097 159.596 217.959 162.116 220.583C164.636 223.208 165.749 225.277 168.318 224.647C170.887 224.017 174.394 221.729 173.473 219.118C172.857 217.364 164.213 210.507 164.601 209.202C165.046 207.736 166.526 208.82 169.151 210.885C171.776 212.95 174.916 212.6 175.563 216.244C176.75 222.981 184.425 220.003 189.7 226.043C191.726 228.364 192.71 225.862 194.093 223.048C195.475 220.234 193 218.91 194.939 217.605C196.878 216.3 199.157 216.85 200.028 219.1C200.9 221.351 202.125 224.27 203.252 227.255C204.316 230.09 210.77 234.496 211.628 234.563C215.281 234.801 210.367 229.163 209.971 227.101C209.576 225.04 211.13 221.186 212.726 220.619C214.322 220.052 214.949 220.594 218.403 218.347C221.858 216.1 218.281 215.715 218.218 211.974C218.155 208.233 220.472 210.419 221.018 211.21C223.143 214.343 226.853 212.67 227.343 210.724C227.548 209.907 227.637 209.064 227.605 208.222C223.524 191.236 211.478 177.273 195.273 170.746ZM224.127 235.298C222.951 232.957 221.579 236.807 215.09 238.427C212.895 238.97 209.983 239.316 205.29 241.013C201.867 242.263 197.8 247.755 199.69 252.564C201.58 257.373 200.394 260.666 204.748 257.814C209.101 254.962 206.018 258.317 207.467 258.864C208.915 259.41 208.563 257.012 211.512 258.513C211.919 258.712 212.341 258.88 212.772 259.015L213.196 259.154C218.627 253.751 222.849 247.257 225.58 240.1C225.566 238.871 225.286 237.659 224.76 236.547C224.565 236.155 224.351 235.736 224.127 235.298ZM167.76 239.659C171.315 233.923 166.702 233.73 164.567 237.643C164.175 238.365 162.261 247.841 163.622 248.899C164.983 249.956 167.018 240.873 167.76 239.659ZM215.95 230.692C215.131 230.765 212.905 232.495 214.273 233.566C215.642 234.637 218.351 234.994 219.426 234.028C220.5 233.062 217.763 230.545 215.95 230.692ZM229.03 217.728C228.341 215.383 226.948 213.756 224.323 213.958C223.665 214.011 226.073 216.682 225.275 217.588C220.555 223.019 226.359 231.229 227.924 231.861L227.994 231.903C228.744 228.276 229.124 224.582 229.125 220.878C229.125 219.807 229.083 218.778 229.03 217.728ZM186.308 225.596C185.496 225.67 183.271 227.405 184.635 228.469C185.958 229.5 188.561 229.861 189.693 229.017L189.808 228.931C190.858 227.972 188.125 225.432 186.308 225.596ZM213.864 225.382C212.79 224.833 211.673 225.603 212.114 226.933C212.527 228.18 213.006 228.743 213.543 228.988L213.636 229.026C214.231 229.26 216.412 229.362 216.412 228.48C216.412 227.598 214.938 225.932 213.864 225.382ZM136.878 192.157C136.674 191.264 134.865 190.607 133.525 190.817C132.185 191.027 130.242 191.264 129.265 192.377L128.982 192.713C127.417 195.279 126.07 197.972 124.957 200.763C125.392 200.975 125.888 201.026 126.357 200.907C128.065 200.525 130.984 197.026 132.849 195.307C133.507 194.677 137.081 193.049 136.878 192.157ZM139.727 182.721C139.594 182.102 138.503 181.651 137.674 181.797C136.844 181.944 135.657 182.102 135.058 182.872C134.777 183.244 132.459 186.168 131.759 187.194C131.524 187.568 132.01 188.545 133.273 188.738C134.904 189 137.865 187.334 139.003 186.155C139.409 185.742 139.86 183.341 139.727 182.721Z" fill="white"/>
<path d="M111.685 50.96V36.8305C111.685 32.2805 113.837 28.9485 119.007 28.9485C124.435 28.9485 125.944 31.962 125.944 36.2705V39.718H121.45V35.868C121.45 34.0585 120.848 33.026 119.08 33.026C117.313 33.026 116.595 34.3 116.595 36.05V51.73C116.595 53.48 117.327 54.7435 119.094 54.7435C120.862 54.7435 121.464 53.6235 121.464 51.9015V46.522H125.944V51.562C125.944 55.741 124.222 58.842 119.007 58.842C113.792 58.842 111.685 55.482 111.685 50.96Z" fill="white"/>
<path d="M129.042 29.2915H133.942V54.4915H139.801V58.499H129.042V29.2915Z" fill="white"/>
<path d="M142.475 29.2915H147.375V58.499H142.475V29.2915Z" fill="white"/>
<path d="M164.573 39.55H164.444L161.129 58.5025H158.844L155.183 39.55H155.095V58.5025H151.049V29.2915H156.775L159.964 45.7415H160.009L162.851 29.2915H169.05V58.499H164.573V39.55Z" fill="white"/>
<path d="M188.173 58.4985H183.133L182.227 53.1548H177.019L176.155 58.4985H171.499L177.015 29.2915H182.615L188.173 58.4985ZM177.658 49.2378H181.582L179.643 37.52H179.598L177.658 49.2378Z" fill="white"/>
<path d="M187.52 29.2915H200.575V33.299H196.526V58.499H191.57V33.299H187.52V29.2915Z" fill="white"/>
<path d="M203.284 29.2915H215.002V33.299H208.194V41.65H213.063V45.612H208.194V54.4845H215.002V58.492H203.284V29.2915Z" fill="white"/>
<path d="M127.501 99.9041H122.461L121.554 94.5632H116.343L115.478 99.9041L110.827 99.8972L116.343 70.7H121.943L127.501 99.9041ZM116.986 90.6501H120.91L118.97 78.9353H118.926L116.986 90.6501Z" fill="white"/>
<path d="M128.913 92.3615V78.232C128.913 73.6645 131.069 70.35 136.238 70.35C141.663 70.35 143.172 73.3635 143.172 77.672V81.116H138.692V77.2835C138.692 75.474 138.09 74.4415 136.322 74.4415C134.555 74.4415 133.823 75.691 133.823 77.455V93.135C133.823 94.885 134.558 96.152 136.322 96.152C138.086 96.152 138.692 95.032 138.692 93.3065V87.9235H143.172V92.9635C143.172 97.1425 141.45 100.243 136.238 100.243C131.027 100.243 128.913 96.8835 128.913 92.3615Z" fill="white"/>
<path d="M144.9 70.7H157.955V74.7075H153.891V99.9074H148.935V74.7075H144.9V70.7Z" fill="white"/>
<path d="M160.651 70.7H165.551V99.904H160.651V70.7Z" fill="white"/>
<path d="M176.239 70.35C181.405 70.35 183.694 73.6644 183.694 78.2318V92.3617C183.694 96.8836 181.45 100.244 176.239 100.244C171.028 100.243 168.83 96.8835 168.83 92.3617V78.2318C168.83 73.6645 171.073 70.3501 176.239 70.35ZM176.239 74.4418C174.472 74.442 173.741 75.6916 173.741 77.4554V93.1351C173.741 94.8849 174.517 96.1515 176.239 96.1517C177.961 96.1517 178.784 94.9026 178.784 93.1351V77.4554C178.784 75.7054 178.007 74.4418 176.239 74.4418Z" fill="white"/>
<path d="M191.052 81.55V99.9005H186.918V70.7H191.745L197.051 87.4475V70.7H201.146V99.904H196.827L191.052 81.55Z" fill="white"/>
</svg>
